<?xml version="1.0" standalone="no"?>
<!DOCTYPE svg PUBLIC "-//W3C//DTD SVG 20010904//EN"
 "http://www.w3.org/TR/2001/REC-SVG-20010904/DTD/svg10.dtd">
<svg version="1.0" xmlns="http://www.w3.org/2000/svg"
 width="256.000000pt" height="256.000000pt" viewBox="0 0 256.000000 256.000000"
 preserveAspectRatio="xMidYMid meet">
<metadata>
Created by potrace 1.14, written by Peter Selinger 2001-2017
</metadata>
<g transform="translate(0.000000,256.000000) scale(0.100000,-0.100000)"
fill="#000000" stroke="none">
<path d="M1150 2460 c0 -6 -3 -9 -8 -6 -9 6 -36 -15 -39 -32 -2 -6 2 -12 8
-12 5 0 7 -4 4 -10 -3 -5 -1 -10 4 -10 6 0 10 -3 9 -7 -2 -8 42 -104 51 -113
6 -5 7 -14 13 -62 1 -10 6 -18 11 -18 7 0 4 -124 -5 -160 -7 -30 -50 -81 -67
-79 -36 3 -51 -2 -51 -18 0 -9 -3 -13 -7 -10 -9 9 -34 -13 -27 -24 3 -5 -1 -9
-9 -9 -7 0 -20 -11 -27 -25 -7 -14 -17 -25 -21 -25 -5 0 -6 -6 -3 -14 3 -8 1
-17 -5 -21 -6 -3 -11 -13 -11 -21 0 -8 5 -12 10 -9 6 3 10 1 10 -5 0 -6 4 -9
9 -6 13 9 7 -22 -7 -36 -7 -7 -12 -16 -12 -20 0 -5 -9 -18 -20 -30 -11 -12
-20 -28 -20 -35 0 -7 -4 -13 -9 -13 -5 0 -11 -9 -14 -20 -3 -11 -12 -20 -21
-20 -9 0 -18 -11 -22 -25 -3 -14 -10 -25 -16 -25 -5 0 -7 -4 -3 -9 3 -5 0 -13
-6 -16 -5 -4 -8 -13 -5 -21 3 -8 1 -14 -4 -14 -6 0 -10 -8 -10 -18 0 -10 -3
-22 -7 -26 -4 -3 -8 -12 -9 -19 -2 -7 -6 -23 -10 -37 -3 -14 -7 -37 -7 -52 -1
-16 -5 -28 -10 -28 -5 0 -7 -6 -4 -12 2 -7 0 -23 -4 -35 -6 -16 -5 -23 3 -23
9 0 9 -3 0 -12 -14 -14 -16 -118 -2 -118 6 0 6 -9 0 -25 -5 -14 -6 -25 -2 -25
4 0 9 -16 10 -35 2 -20 7 -46 12 -60 5 -13 6 -26 2 -28 -11 -5 -76 -2 -87 4
-5 4 -20 5 -33 4 -41 -3 -102 70 -120 145 -2 8 -5 42 -7 75 -2 33 -4 63 -5 67
0 3 -9 4 -20 1 -11 -3 -17 -9 -14 -14 3 -5 0 -9 -6 -9 -6 0 -9 -4 -6 -9 4 -5
0 -12 -6 -14 -10 -4 -9 -6 1 -6 10 -1 11 -4 2 -15 -6 -7 -13 -30 -14 -49 -2
-20 -6 -39 -10 -43 -3 -4 -2 -14 3 -24 5 -10 7 -20 3 -23 -8 -8 -12 -87 -4
-87 3 0 7 -17 8 -37 1 -21 7 -39 13 -41 5 -2 8 -7 5 -12 -3 -5 3 -7 12 -5 10
2 18 4 18 5 0 1 9 4 20 6 31 8 75 7 135 -1 30 -4 64 -9 75 -11 11 -1 21 -3 23
-4 3 -3 19 -7 32 -9 6 0 10 -13 10 -28 0 -31 40 -119 68 -149 42 -44 112 -95
122 -89 5 3 10 1 10 -4 0 -6 9 -11 20 -11 11 0 20 -4 20 -9 0 -5 8 -8 18 -6 9
2 17 4 17 5 0 0 27 2 60 4 70 4 107 -2 99 -16 -3 -5 1 -20 10 -33 39 -59 53
-93 51 -120 -2 -17 -4 -31 -5 -32 -1 -2 -4 -7 -5 -13 -1 -5 -4 -12 -5 -15 -1
-3 -3 -9 -4 -14 0 -4 -16 -26 -34 -47 -24 -28 -42 -40 -65 -41 -18 -1 -90 -7
-162 -13 -71 -6 -147 -11 -167 -12 -21 0 -38 -3 -38 -7 0 -6 -19 -9 -91 -14
-23 -2 -59 -25 -44 -28 17 -4 25 -7 28 -9 5 -4 44 -11 70 -12 15 -1 27 -5 27
-9 0 -4 21 -6 46 -5 25 1 48 -2 50 -6 3 -4 37 -7 77 -6 40 1 83 -2 97 -7 14
-5 37 -8 53 -7 16 2 27 -3 27 -10 0 -10 2 -10 8 -1 9 14 112 14 112 -1 0 -5 7
-1 16 10 15 18 15 18 10 0 -5 -14 -3 -16 6 -9 20 15 91 15 81 0 -4 -8 -1 -8
10 1 9 8 21 11 27 7 5 -3 10 0 10 7 0 8 3 9 8 3 9 -13 62 -14 62 -2 0 6 10 2
22 -9 12 -10 18 -13 14 -6 -10 17 33 32 60 21 12 -4 24 -6 26 -4 1 2 32 6 68
10 89 9 114 13 120 16 3 1 14 3 25 4 11 1 27 4 35 8 8 3 28 8 43 11 16 4 25
11 21 17 -3 6 -8 8 -11 5 -3 -2 -17 0 -32 6 -14 6 -39 12 -56 13 -16 1 -37 5
-45 8 -8 3 -28 5 -45 5 -16 -1 -37 2 -45 5 -17 6 -231 19 -297 17 -23 0 -44 4
-48 10 -3 5 -1 10 5 10 6 0 36 26 67 57 l55 57 -24 19 c-12 11 -30 24 -39 31
-23 17 -69 88 -69 108 0 10 7 18 15 18 8 0 15 -4 15 -10 0 -5 19 -9 43 -9 23
0 58 -2 77 -5 147 -18 232 -22 248 -12 7 4 12 4 12 -1 0 -4 19 -9 43 -9 23 -1
63 -4 89 -7 27 -3 46 -2 44 2 -3 4 7 6 22 3 19 -2 34 4 50 21 l23 24 -26 17
c-14 9 -25 23 -25 30 0 8 -3 16 -7 18 -12 5 -53 66 -53 78 0 5 -5 10 -12 10
-6 0 -8 3 -5 6 3 4 1 16 -5 28 -7 11 -13 28 -15 36 -7 32 -1 315 7 315 1 0 3
27 5 60 2 33 6 78 9 100 13 91 16 123 18 172 2 29 6 53 9 53 3 0 6 12 6 28 0
59 6 132 12 132 3 0 6 21 7 48 2 76 8 116 19 124 6 5 6 8 -2 8 -7 0 -10 9 -7
23 8 33 12 177 5 177 -3 0 -7 17 -9 37 -1 21 -7 42 -12 47 -6 6 -10 17 -10 26
0 23 -29 80 -41 80 -5 0 -15 11 -21 25 -6 14 -18 25 -25 25 -8 0 -11 5 -8 10
3 6 -2 10 -11 10 -10 0 -15 3 -11 6 6 6 -56 54 -69 54 -3 0 -18 9 -34 20 -15
11 -30 17 -34 13 -3 -3 -6 -1 -6 6 0 7 -4 9 -10 6 -5 -3 -10 -2 -10 3 0 8 -16
16 -40 20 -3 0 -29 10 -57 21 -29 11 -53 18 -53 15 0 -4 -7 -1 -15 6 -8 7 -21
10 -29 7 -8 -3 -20 1 -26 8 -9 11 -17 12 -31 4 -11 -5 -19 -6 -19 0 0 9 -46
20 -107 27 -18 1 -42 8 -54 14 -15 8 -19 9 -15 1 4 -6 2 -11 -3 -11 -6 0 -11
4 -11 10 0 6 -9 6 -23 1 -14 -5 -30 -5 -40 0 -11 7 -17 6 -17 -1z"/>
</g>
</svg>
